<svg width="620.000000" height="620.000000" viewBox="0 0 620 620" fill="none" xmlns="http://www.w3.org/2000/svg" xmlns:xlink="http://www.w3.org/1999/xlink">
	<defs>
		<filter id="filter_52_360_dd" x="55.093750" y="86.447021" width="526.529297" height="441.383057" filterUnits="userSpaceOnUse" color-interpolation-filters="sRGB">
			<feFlood flood-opacity="0" result="BackgroundImageFix"/>
			<feBlend mode="normal" in="SourceGraphic" in2="BackgroundImageFix" result="shape"/>
			<feColorMatrix in="SourceAlpha" type="matrix" values="0 0 0 0 0 0 0 0 0 0 0 0 0 0 0 0 0 0 127 0" result="hardAlpha"/>
			<feOffset dx="11" dy="-14"/>
			<feGaussianBlur stdDeviation="4"/>
			<feComposite in2="hardAlpha" operator="arithmetic" k2="-1" k3="1"/>
			<feColorMatrix type="matrix" values="0 0 0 0 0.086275 0 0 0 0 0.090196 0 0 0 0 0.17647 0 0 0 1 0"/>
			<feBlend mode="normal" in2="shape" result="effect_innerShadow_1"/>
			<feColorMatrix in="SourceAlpha" type="matrix" values="0 0 0 0 0 0 0 0 0 0 0 0 0 0 0 0 0 0 127 0" result="hardAlpha"/>
			<feOffset dx="0" dy="5"/>
			<feGaussianBlur stdDeviation="5"/>
			<feComposite in2="hardAlpha" operator="arithmetic" k2="-1" k3="1"/>
			<feColorMatrix type="matrix" values="0 0 0 0 0.14902 0 0 0 0 0.16078 0 0 0 0 0.30588 0 0 0 0.52 0"/>
			<feBlend mode="normal" in2="effect_innerShadow_1" result="effect_innerShadow_2"/>
		</filter>
		<filter id="filter_52_361_dd" x="34.173828" y="337.709229" width="527.123047" height="88.800781" filterUnits="userSpaceOnUse" color-interpolation-filters="sRGB">
			<feFlood flood-opacity="0" result="BackgroundImageFix"/>
			<feColorMatrix in="SourceAlpha" type="matrix" values="0 0 0 0 0 0 0 0 0 0 0 0 0 0 0 0 0 0 127 0" result="hardAlpha"/>
			<feOffset dx="0" dy="4"/>
			<feGaussianBlur stdDeviation="0.333333"/>
			<feComposite in2="hardAlpha" operator="out" k2="-1" k3="1"/>
			<feColorMatrix type="matrix" values="0 0 0 0 0 0 0 0 0 0 0 0 0 0 0 0 0 0 0.25 0"/>
			<feBlend mode="normal" in2="BackgroundImageFix" result="effect_dropShadow_1"/>
			<feColorMatrix in="SourceAlpha" type="matrix" values="0 0 0 0 0 0 0 0 0 0 0 0 0 0 0 0 0 0 127 0" result="hardAlpha"/>
			<feOffset dx="0" dy="4"/>
			<feGaussianBlur stdDeviation="0.666667"/>
			<feComposite in2="hardAlpha" operator="out" k2="-1" k3="1"/>
			<feColorMatrix type="matrix" values="0 0 0 0 0.086275 0 0 0 0 0.090196 0 0 0 0 0.17647 0 0 0 0.94 0"/>
			<feBlend mode="normal" in2="effect_dropShadow_1" result="effect_dropShadow_2"/>
			<feBlend mode="normal" in="SourceGraphic" in2="effect_dropShadow_2" result="shape"/>
		</filter>
		<clipPath id="clip52_362">
			<rect id="Frame 5" rx="140.000000" width="620.000000" height="620.000000" fill="white" fill-opacity="0"/>
		</clipPath>
		<radialGradient gradientTransform="translate(223.888 35.5555) rotate(67.3234) scale(560.556 560.556)" cx="0.000000" cy="0.000000" r="1.000000" id="paint_radial_52_359_0" gradientUnits="userSpaceOnUse">
			<stop stop-color="#81839C"/>
			<stop offset="0.633181" stop-color="#52557B"/>
			<stop offset="1.000000" stop-color="#27293E"/>
		</radialGradient>
		<linearGradient x1="299.003815" y1="330.500244" x2="290.501007" y2="432.500000" id="paint_linear_52_361_0" gradientUnits="userSpaceOnUse">
			<stop stop-color="#494C70" stop-opacity="0.980392"/>
			<stop offset="0.393407" stop-color="#8389BA"/>
			<stop offset="1.000000" stop-color="#2D304E"/>
		</linearGradient>
	</defs>
	<g clip-path="url(#clip52_362)">
		<path id="bg" d="M140 0L480 0C557.32 0 620 62.68 620 140L620 480C620 557.32 557.32 620 480 620L140 620C62.67 620 0 557.32 0 480L0 140C0 62.68 62.67 0 140 0Z" fill="url(#paint_radial_52_359_0)" fill-opacity="1.000000" fill-rule="evenodd"/>
		<g filter="url(#filter_52_360_dd)">
			<path id="path" d="M572.49 89.05C566.1 87.35 564.65 93.26 561.78 96.68C560.8 97.8 560.03 99.17 559.27 100.4C552.53 111.18 543.74 119.08 530.63 120.89C511.42 123.56 496.38 132.68 484.89 150.02C478.34 132.69 466.13 123.98 449.4 120.12C440.64 118.13 431.78 116.16 424.64 109.5C419.61 104.76 417.35 98.83 414.17 93.17C412.22 89.76 410.22 86.26 405.89 86.45C401.19 86.62 400.15 90.8 398.99 94.36C394.36 108.85 394.42 123.83 397.53 138.4C404.58 171.13 423.59 194.59 454.8 207.85C458.36 209.36 459.59 211.36 459.2 214.67C458.58 221.45 457.56 228.11 456.82 234.91C456.38 239.26 454.68 240.53 449.95 239.58C433.57 236.22 418.66 229.43 404.9 220.36C381.58 205.23 359.75 187.76 334.43 175.7C328.48 172.88 322.61 170.32 316.57 167.99C289.71 150.46 311.73 127.47 317.21 124.2C322.97 120.77 317.43 113.89 297.47 117.88C277.53 121.87 260.55 132.12 239.01 145.56C235.86 147.58 232.49 149.27 228.95 150.75C207.04 150.91 184.92 154.29 162.49 161.34C120.26 174.6 89.76 201.74 71.21 241.53C48.93 289.31 51.06 338.28 69.52 386.21C88.95 436.67 124.1 474.78 171.75 500.62C221.13 527.38 273.49 535 328.73 520.79C362.3 512.22 399.22 500.28 434.8 455.9C446.6 459.13 458.29 459.04 477.34 457.01C492.03 455.55 505.5 450.76 515.82 446.45C531.96 439.6 527.75 424.26 521.11 422.55C467.26 409.22 479.91 416.45 468.58 410.84C487.87 376.24 519.66 338.04 514.95 235.32C514.55 227.15 512.58 222.38 511.17 215.96C510.32 212.09 510.9 210.39 515.28 209.06C527.38 205.25 538.71 199.52 548.55 191.28C577.12 167.56 584.41 136.39 580.74 101.41C580.17 96.08 578.56 90.73 572.49 89.05ZM354.27 452.93C299.08 424.68 273.48 416.85 264 419.26C255.15 421.5 258.75 431.43 262.02 437.73C265.37 443.92 268.95 447.95 273.85 452.99C277.2 456.32 280.1 461.7 273.95 467.31C260.4 479.88 231.13 472.34 229.74 471.96C194.99 459.72 164.2 440.57 139.36 411.04C115.41 382.59 98.42 350.39 89.6 314.21C87.42 305.46 89.41 301.83 97.87 298.54C109.01 294.17 120.85 291.38 132.73 290.8C182.93 288.4 228.76 302.12 270.33 329.85C294.07 345.69 313.71 366.26 333.7 386.2C354.95 407.4 377.22 427.18 403.52 441.81C412.78 446.94 420.15 450.8 426.96 453.36C409.01 458.97 378.45 465.41 354.27 452.93ZM348.39 301.02C347.62 297.09 350.15 293.36 354.11 292.59C354.99 292.42 355.84 292.44 356.62 292.57C357.66 292.74 358.67 293.11 359.53 293.78C361.03 294.75 362.11 296.42 362.47 298.27C363.23 302.19 360.7 305.92 356.77 306.69C352.81 307.46 349.15 304.94 348.39 301.02ZM426.74 323.67C422.54 326.41 418.29 328.92 413.94 329.96C407.2 331.61 399.22 330.3 394.52 327.71C387.24 323.7 382.19 321.64 378.49 312.8C376.93 309.03 376.21 302.89 376.23 299.28C376.39 291.47 373.65 287.04 367.53 283.69C362.52 280.97 356.88 281.09 350.87 282.26C348.64 282.7 346.38 282.1 344.69 281.59C341.93 280.82 339.27 278.11 340.49 273.89C340.88 272.54 343.34 268.93 343.96 268.24C351.19 262.01 360.89 261.7 370.27 263.48C378.98 265.2 386.24 270.06 396.67 276.88C407.66 285.46 409.83 288.03 416.45 294.75C421.66 300.06 426.56 305.57 430.46 312.21C432.84 316.34 431.59 320.38 426.74 323.67Z" fill="#A7AEFF" fill-opacity="0.101161" fill-rule="nonzero"/>
		</g>
		<g filter="url(#filter_52_361_dd)">
			<path id="DeepStyled" d="M442.46 337.7L436.23 337.7L436.23 403L442.46 403L442.46 337.7ZM559.29 403L559.29 337.7L553.04 337.7L553.04 365.51Q551.07 362.46 548.35 360.41Q547.06 359.44 545.61 358.69Q545.26 358.51 544.9 358.35Q540.64 356.35 535.44 356.35Q530.31 356.35 525.94 358.19Q524.75 358.69 523.63 359.32Q521.36 360.59 519.51 362.3Q517.07 364.57 515.36 367.63Q515.15 367.99 514.97 368.36Q512.37 373.45 512.37 379.86Q512.37 386.12 514.87 391.15Q515.1 391.62 515.36 392.08Q517.04 395.08 519.42 397.34Q521.31 399.12 523.63 400.44Q524.81 401.1 526.04 401.62Q530.37 403.43 535.44 403.43Q540.82 403.43 545.18 401.32Q545.53 401.16 545.86 400.98Q547.54 400.08 548.98 398.9Q551.5 396.82 553.3 393.84L553.3 403L559.29 403ZM301.9 402.3Q306.72 403.53 311.85 403.53Q319.43 403.53 324.61 401.3Q329.81 399.04 332.32 395.22Q333.47 393.47 334.09 391.55Q334.84 389.25 334.84 386.71Q334.84 381.42 332.26 378.2Q332.09 377.99 331.92 377.79Q330.74 376.46 329.36 375.39Q327.32 373.83 324.82 372.85Q320.66 371.22 313.89 369.57Q308.15 368.15 304.76 366.97Q301.39 365.76 299.13 363.53Q298.58 362.97 298.16 362.33Q296.9 360.36 296.9 357.58Q296.9 355.38 297.71 353.55Q298.72 351.27 300.98 349.54Q305.08 346.41 313.18 346.41Q317.41 346.41 321.8 347.69Q323.45 348.17 325.03 348.83Q327.65 349.92 330.07 351.52L332.28 346.32Q328.59 343.76 323.51 342.32Q321.35 341.7 319.13 341.34Q316.2 340.86 313.18 340.86Q305.62 340.86 300.51 343.16Q295.41 345.44 292.94 349.28Q291.89 350.91 291.29 352.7Q290.47 355.1 290.47 357.77Q290.47 363.19 293.12 366.48Q293.26 366.66 293.42 366.84Q294.97 368.58 296.84 369.86Q298.54 371.02 300.51 371.8Q304.65 373.43 311.59 375.19Q317.41 376.59 320.66 377.79Q323.92 378.98 326.16 381.19Q326.71 381.72 327.12 382.35Q328.41 384.28 328.41 387.08Q328.41 389.12 327.67 390.85Q326.66 393.2 324.27 394.96Q320.12 397.99 311.85 397.99Q309.12 397.99 306.47 397.55Q303.4 397.04 300.42 395.93Q294.88 393.84 291.53 390.49L288.99 395.52Q292.41 399.13 298.7 401.34Q300.28 401.89 301.9 402.3ZM65.28 341.4L36.17 341.4L36.17 403L65.28 403Q75.42 403 83.24 399.21Q88.76 396.55 92.52 392.33Q94.11 390.55 95.38 388.49Q95.74 387.91 96.08 387.31Q99.7 380.75 99.7 372.19Q99.7 363.67 96.09 357.14Q95.75 356.52 95.38 355.92Q94.07 353.8 92.44 351.98Q88.7 347.81 83.24 345.18Q75.42 341.4 65.28 341.4ZM369.69 402.61Q372.29 401.77 374.05 400.18L371.86 395.69Q370.53 396.83 368.72 397.45Q368.03 397.69 367.32 397.84Q366.17 398.08 364.98 398.08Q361.56 398.08 359.54 396.39Q359.27 396.18 359.03 395.93Q356.97 393.76 356.97 389.61L356.97 361.98L371.06 361.98L371.06 356.72L356.97 356.72L356.97 346.58L350.74 346.58L350.74 356.72L342.47 356.72L342.47 361.98L350.74 361.98L350.74 389.98Q350.74 395.76 353.58 399.2Q353.89 399.58 354.24 399.92Q354.53 400.21 354.84 400.48Q358.3 403.43 364.27 403.43Q367.1 403.43 369.68 402.61L369.69 402.61ZM158.55 383.38Q158.81 379.41 158.81 379.23Q158.81 371.59 155.42 366L155.42 366Q153.73 363.2 151.42 361.07Q149.13 358.94 146.22 357.47Q145.64 357.17 145.04 356.9Q139.7 354.51 133.29 354.51Q126.55 354.51 121.02 357.08Q120.41 357.37 119.82 357.69Q116.13 359.63 113.43 362.5Q111.75 364.29 110.45 366.43Q109.65 367.76 109.03 369.17Q107.08 373.69 107.08 379.06Q107.08 384.44 109.04 388.96Q109.68 390.44 110.54 391.82Q111.48 393.35 112.63 394.7Q115.73 398.32 120.35 400.63Q126.69 403.79 135.05 403.79Q146.4 403.79 153.12 398.21Q154.32 397.21 155.37 396.03L146.59 386.88Q144.03 389.1 141.52 390.06Q139 391.03 135.59 391.03Q131.01 391.03 127.96 389.05Q126.82 388.31 125.95 387.31Q124.53 385.68 123.88 383.38L158.55 383.38ZM217.05 383.38Q217.31 379.41 217.31 379.23Q217.31 371.59 213.91 366L213.91 366Q212.22 363.2 209.92 361.07Q207.62 358.94 204.72 357.47Q204.13 357.17 203.54 356.9Q198.2 354.51 191.78 354.51Q185.05 354.51 179.52 357.08Q178.91 357.37 178.31 357.69Q174.63 359.63 171.93 362.5Q170.25 364.29 168.95 366.43Q168.14 367.76 167.53 369.17Q165.57 373.69 165.57 379.06Q165.57 384.44 167.54 388.96Q168.18 390.44 169.03 391.82Q169.98 393.35 171.13 394.7Q174.23 398.32 178.85 400.63Q185.19 403.79 193.54 403.79Q204.9 403.79 211.62 398.21Q212.82 397.21 213.87 396.03L205.08 386.88Q202.53 389.1 200.01 390.06Q197.5 391.03 194.08 391.03Q189.51 391.03 186.46 389.05Q185.31 388.31 184.45 387.31Q183.03 385.68 182.37 383.38L217.05 383.38ZM265.91 356.12Q261.81 354.51 257.07 354.51Q249.13 354.51 244.57 358.43Q243.71 359.17 242.97 360.05L242.97 355.3L227.05 355.3L227.05 420.08L243.77 420.08L243.77 398.76Q244.86 399.88 246.12 400.75Q250.55 403.79 257.07 403.79Q261.87 403.79 266.01 402.14Q267.49 401.56 268.88 400.76Q270.79 399.67 272.42 398.25Q275.33 395.71 277.33 392.12Q280.46 386.54 280.46 379.15Q280.46 371.76 277.33 366.17Q275.32 362.56 272.38 360.02Q270.77 358.63 268.88 357.56Q267.44 356.73 265.91 356.12ZM75.51 386.04Q71.11 389.1 64.59 389.1L53.59 389.1L53.59 355.3L64.59 355.3Q71.11 355.3 75.51 358.35Q76.45 359 77.29 359.79Q78.37 360.8 79.21 361.98Q82.1 366.06 82.1 372.19Q82.1 378.36 79.18 382.45Q78.35 383.61 77.29 384.61Q76.45 385.39 75.51 386.04ZM463.47 381.79L502.19 381.79L502.29 379.86Q502.29 373.12 499.48 367.88Q499.43 367.78 499.37 367.68Q497.68 364.57 495.23 362.25Q493.49 360.6 491.36 359.36Q490.29 358.73 489.17 358.23Q484.92 356.35 479.84 356.35Q474.93 356.35 470.76 358.11Q469.48 358.65 468.26 359.36Q466.28 360.52 464.61 362.03Q461.98 364.42 460.16 367.72Q459.9 368.2 459.66 368.69Q457.22 373.68 457.22 379.86Q457.22 385.47 459.33 390.13Q459.77 391.08 460.29 392Q461.7 394.44 463.61 396.4Q465.89 398.75 468.88 400.4Q468.98 400.45 469.07 400.5Q474.5 403.43 481.52 403.43Q487.06 403.43 491.68 401.49Q494.82 400.18 497.25 398.05Q498.39 397.04 499.37 395.86L495.87 391.82Q494.34 393.56 492.48 394.8Q491.13 395.71 489.62 396.36Q486.01 397.88 481.69 397.88Q475.89 397.88 471.6 395.34Q470.23 394.53 469.01 393.46Q467.19 391.84 465.97 389.86Q463.81 386.39 463.47 381.79ZM402.28 408.54L425.42 356.72L419.25 356.72L401.83 396.03L384.41 356.72L377.9 356.72L398.59 402.91L396.55 407.4Q394.61 411.61 392.36 413.37Q391.77 413.84 391.12 414.18Q389.29 415.13 386.96 415.13Q384.61 415.13 382.58 414.33Q380.36 413.45 378.52 411.61L375.62 416.27Q376.34 417 377.15 417.6Q378.72 418.76 380.63 419.45Q383.53 420.51 386.88 420.51Q391.07 420.51 394.28 418.73Q395.05 418.31 395.77 417.78Q399.47 415.05 402.28 408.54ZM472.31 363.41Q475.65 361.72 479.84 361.72Q484.24 361.72 487.69 363.53Q489.55 364.5 491.14 366Q492.49 367.26 493.49 368.76Q495.86 372.29 496.3 377.13L463.47 377.13Q463.91 372.29 466.28 368.76Q467.28 367.26 468.63 366Q470.32 364.4 472.31 363.41ZM542.81 396.58Q539.65 397.88 535.96 397.88Q531.95 397.88 528.6 396.4Q527.84 396.06 527.11 395.65Q525.72 394.85 524.54 393.82Q522.4 391.95 520.94 389.29Q520.85 389.11 520.75 388.93Q518.71 384.91 518.71 379.86Q518.71 374.74 520.8 370.72Q520.87 370.58 520.94 370.45Q522.42 367.72 524.62 365.83Q525.77 364.83 527.11 364.07Q527.89 363.62 528.71 363.26Q532.02 361.81 535.96 361.81Q539.59 361.81 542.7 363.08Q543.73 363.51 544.7 364.07Q546.15 364.89 547.36 365.97Q549.46 367.82 550.87 370.45Q550.98 370.64 551.08 370.84Q553.13 374.82 553.13 379.86Q553.13 384.84 551.12 388.81Q551 389.05 550.87 389.29Q549.48 391.85 547.44 393.68Q546.2 394.8 544.7 395.65Q543.78 396.18 542.81 396.58ZM128.26 367.64Q130.46 366.39 133.37 366.39Q136.37 366.39 138.59 367.7Q139.25 368.09 139.84 368.6Q140.45 369.11 140.96 369.71Q142.61 371.68 143.15 374.57L123.62 374.57Q124.14 371.7 125.77 369.74Q126.28 369.13 126.91 368.6Q127.55 368.05 128.26 367.64ZM186.76 367.64Q188.95 366.39 191.87 366.39Q194.87 366.39 197.08 367.7Q197.74 368.09 198.34 368.6Q198.95 369.11 199.45 369.71Q201.1 371.68 201.64 374.57L182.12 374.57Q182.64 371.7 184.26 369.74Q184.78 369.13 185.4 368.6Q186.04 368.05 186.76 367.64ZM258.25 389.41Q256.18 390.49 253.54 390.49Q250.91 390.49 248.84 389.41Q247.46 388.68 246.33 387.46Q246.09 387.21 245.88 386.94Q243.51 383.99 243.51 379.15Q243.51 374.3 245.88 371.36Q246.09 371.09 246.33 370.83Q247.46 369.62 248.84 368.89Q250.91 367.8 253.54 367.8Q256.18 367.8 258.25 368.89Q259.63 369.62 260.76 370.83Q261 371.09 261.21 371.36Q263.58 374.3 263.58 379.15Q263.58 383.99 261.21 386.94Q261 387.21 260.76 387.46Q259.63 388.68 258.25 389.41Z" fill="url(#paint_linear_52_361_0)" fill-opacity="1.000000" fill-rule="evenodd"/>
		</g>
	</g>
</svg>
